<?xml version="1.0" encoding="UTF-8"?>
<svg width="166px" height="22px" viewBox="0 0 166 22" version="1.1" xmlns="http://www.w3.org/2000/svg" xmlns:xlink="http://www.w3.org/1999/xlink">
    <!-- Generator: Sketch 42 (36781) - http://www.bohemiancoding.com/sketch -->
    <title>Combined Shape</title>
    <desc>Created with Sketch.</desc>
    <defs></defs>
    <g id="Page-1" stroke="none" stroke-width="1" fill="none" fill-rule="evenodd">
        <g id="3-Bauhaus-Invert" transform="translate(-517.000000, -919.000000)" stroke="#F8F8F8" stroke-width="2" fill-rule="nonzero">
            <path d="M664.02856,921.097181 L663.931726,921 L648.02142,936.96731 L632.111114,921 L632.01428,921.097181 L631.917446,921 L616.00714,936.96731 L600.096834,921 L600,921.097181 L599.903166,921 L583.99286,936.96731 L568.082554,921 L567.98572,921.097181 L567.888886,921 L551.97858,936.96731 L536.068274,921 L535.97144,921.097181 L535.874606,921 L519,937.935065 L520.061133,939 L535.97144,923.03269 L551.881746,939 L551.97858,938.902819 L552.075414,939 L567.98572,923.03269 L583.896026,939 L583.99286,938.902819 L584.089694,939 L600,923.03269 L615.910306,939 L616.00714,938.902819 L616.103974,939 L632.01428,923.03269 L647.924586,939 L648.02142,938.902819 L648.118254,939 L664.02856,923.03269 L679.938867,939 L681,937.935065 L664.125394,921 L664.02856,921.097181 Z" id="Combined-Shape"></path>
        </g>
    </g>
</svg>